<svg width="44" height="52" viewBox="0 0 44 52" fill="none" xmlns="http://www.w3.org/2000/svg">
<ellipse cx="27" cy="4.5" rx="4" ry="4.5" fill="black"/>
<path d="M41.9205 22.2776C40.6953 22.0702 35.5814 21.033 35.315 20.9292C35.1552 20.8774 35.1552 20.8774 35.102 20.7737C34.9954 20.6181 30.361 12.6836 29.9348 12.2168C29.189 11.1796 28.1769 10.3499 26.6854 10.1424C25.0873 9.6757 23.4359 10.5055 23.4359 10.5055C23.4359 10.5055 15.3922 14.8617 14.9128 15.1728C14.3801 15.4321 13.9539 16.3656 13.9539 16.3656L9.21293 23.2629C8.78677 23.7815 8.62696 24.4557 8.84004 25.1817C9.05312 25.9596 9.74563 26.5301 10.5979 26.6857C11.7699 26.8931 12.782 26.0633 13.2614 25.078L17.7893 18.6474L20.0267 17.6621C19.8669 18.1288 18.0557 27.7228 18.0557 27.7228L16.2445 39.0801L8.78677 47.2739C8.20081 47.8444 7.88119 48.6741 8.041 49.5558C8.20081 50.6448 9.05312 51.4227 10.1718 51.5783C11.2372 51.7339 12.196 51.2671 12.8353 50.5411C14.1137 49.0372 20.9855 41.6212 21.5715 40.8952C22.264 40.0654 22.4238 39.6506 22.5303 39.132C22.6369 38.6134 23.649 31.6642 23.649 31.6642L30.5208 38.0948L31.7992 49.7113V49.7113C31.9591 51.0078 33.2375 52.0969 34.6225 51.9932C35.9543 51.8894 36.9664 50.956 37.0729 49.6595V49.3483C37.0197 47.5851 35.7945 38.7689 35.7945 36.7983C35.8477 34.5683 34.9954 34.1016 34.8356 33.8941C34.6225 33.6348 28.1769 27.2561 28.1769 27.2561L29.4021 19.8402C29.4021 19.8402 31.5862 23.2629 31.7992 23.6259C32.0123 23.989 32.5983 24.6631 33.1843 24.8187C33.7702 24.9224 41.4943 26.4782 41.4943 26.4782C41.4943 26.4782 41.7074 26.4782 41.8139 26.4782C43.0391 26.4782 44.0513 25.5447 43.998 24.352C43.998 23.2629 43.0924 22.3294 41.9205 22.2776Z" fill="black"/>
<path d="M7.99303 37.6233L0.989539 32.9079C-0.00349337 32.2268 -0.317083 30.8122 0.362361 29.8167L2.92334 25.992C3.60278 24.9965 5.01393 24.6821 6.00697 25.3633L13.0105 30.0787C14.0035 30.7598 14.3171 32.1744 13.6376 33.1699L11.0767 36.9946C10.3972 38.0425 8.98607 38.3044 7.99303 37.6233Z" fill="black"/>
</svg>
