<svg width="53" height="52" viewBox="0 0 53 52" fill="none" xmlns="http://www.w3.org/2000/svg">
<path fill-rule="evenodd" clip-rule="evenodd" d="M25.209 29.6667L30.2372 24.7333C31.1884 23.8 31.1884 22.3333 30.2372 21.4L9.58075 1.13335C8.62947 0.200016 7.1346 0.200016 6.18332 1.13335L1.15511 6.06668C0.20383 7.00002 0.20383 8.46668 1.15511 9.40002L21.8795 29.7333C22.7628 30.6 24.3256 30.6 25.209 29.6667ZM8.69742 3.66668L26.9756 21.6L25.4808 23.0667L7.20255 5.13335L8.69742 3.66668ZM23.5102 25L5.23204 7.06668L3.73716 8.53335L22.0154 26.4667L23.5102 25Z" fill="black"/>
<path d="M46.5449 42.4667L45.9333 43L29.6936 27.0667L27.5872 29.1334L43.8269 45.0667L43.2833 45.6667L49.3307 51.5334L52.5243 48.4L46.5449 42.4667Z" fill="black"/>
<path d="M26.3641 30.8C25.4808 31.6667 24.3256 32.0667 23.1026 31.9334C22.1513 31.8 21.268 31.3334 20.5885 30.6667L18.3462 28.4C18.2782 28.3334 18.1423 28.3334 18.0744 28.4L16.5795 29.8667L14.9487 31.4667C14.8808 31.5334 14.8128 31.5334 14.7449 31.5334C11.2115 30.2667 7.06667 31.0667 4.21283 33.8667C1.63077 36.4 0.747441 40 1.56283 43.2667C1.63077 43.4 1.76667 43.4667 1.90257 43.3334L6.38718 38.9334C7.40642 37.9334 9.03718 37.9334 9.98847 38.9334L13.318 42.2C14.3372 43.2 14.3372 44.8 13.318 45.7334L8.83334 50.1334C8.69744 50.2667 8.76539 50.4 8.90129 50.4667C12.2308 51.2667 15.9 50.4 18.4821 47.8667C21.3359 45.0667 22.0833 41 20.8603 37.5334C20.8603 37.4667 20.8603 37.4 20.9282 37.3334L22.491 35.8L27.3154 31.0667L26.7039 30.4667L26.3641 30.8Z" fill="black"/>
<path d="M31.2564 20.2C32.8872 21.8 32.8872 24.4 31.2564 25.9334L31.0526 26.1334L31.6641 26.7334L36.4885 22L38.0513 20.4667C38.1192 20.4 38.1872 20.4 38.2551 20.4C41.7885 21.6667 45.9333 20.8667 48.7872 18.0667C51.3692 15.5334 52.2526 11.9334 51.4372 8.66671C51.3692 8.53338 51.2333 8.46671 51.0974 8.60004L46.6128 13C45.5936 14 43.9628 14 43.0115 13L39.682 9.73338C38.6628 8.73338 38.6628 7.13338 39.682 6.20004L44.1667 1.80004C44.3026 1.66671 44.2346 1.53338 44.0987 1.46671C40.7692 0.666711 37.1 1.53338 34.5179 4.06671C31.6641 6.86671 30.9167 10.9334 32.1397 14.4C32.1397 14.4667 32.1397 14.5334 32.0718 14.6L30.509 16.1334L29.0141 17.6C28.9461 17.6667 28.9461 17.8 29.0141 17.8667L31.2564 20.2Z" fill="black"/>
</svg>
