<svg width="53" height="55" viewBox="0 0 53 55" fill="none" xmlns="http://www.w3.org/2000/svg">
<path d="M23.3531 2.69498C18.55 4.83998 14.9062 8.52498 12.4771 13.64C12.0906 14.41 12.0354 15.455 11.925 16.5C11.8146 17.545 11.7042 18.645 11.3177 19.305C10.7104 20.35 8.28125 21.56 6.34896 22.55C3.91979 23.76 2.37396 24.585 1.9875 25.52C1.10416 27.775 2.92604 28.93 3.91979 29.59C4.14062 29.755 4.47187 29.92 4.58229 30.085C4.41666 30.47 4.08541 30.8 3.64375 31.185C2.92604 31.79 1.9875 32.56 2.20833 34.045C2.26354 34.21 2.26354 34.375 2.37396 34.54V34.54C2.42916 34.65 2.37396 34.815 2.26354 34.925C1.21458 35.75 1.15937 37.29 2.15312 39.105C2.20833 39.16 2.20833 39.27 2.20833 39.325C2.09791 39.82 1.76666 40.26 1.49062 40.7C0.883331 41.635 0.110415 42.735 0.552081 44.66C1.10416 46.97 5.02396 48.565 12.5323 49.445C12.6427 49.445 12.7531 49.555 12.7531 49.61C12.8083 49.665 12.8083 49.775 12.8083 49.885C12.5323 51.205 11.925 53.24 11.7594 53.68C11.649 54.01 11.8146 54.395 12.201 54.505C12.2562 54.505 12.3667 54.56 12.4219 54.56C12.6979 54.56 12.974 54.395 13.0292 54.12C13.1948 53.68 13.8021 51.535 14.0781 50.16C14.1885 49.72 14.0781 49.225 13.8021 48.84C13.526 48.455 13.0844 48.235 12.6427 48.18C3.42291 47.08 1.9875 45.155 1.82187 44.385C1.49062 43.01 1.9875 42.295 2.53958 41.415C2.92604 40.865 3.25729 40.315 3.47812 39.6C3.58854 39.215 3.53333 38.83 3.3125 38.445C3.09166 38.005 2.37396 36.465 3.09166 35.915C3.69896 35.42 3.91979 34.54 3.53333 33.88C3.53333 33.88 3.53333 33.825 3.53333 33.77C3.42291 33.055 3.75416 32.725 4.47187 32.12C5.02396 31.625 5.68646 31.075 5.90729 30.195C6.07291 29.37 5.35521 28.93 4.6375 28.435C3.42291 27.665 2.76041 27.115 3.20208 26.015C3.42291 25.52 5.41041 24.475 6.90104 23.705C9.21979 22.55 11.649 21.285 12.4219 19.965C12.9187 19.085 13.0844 17.82 13.1948 16.665C13.3052 15.785 13.3604 14.85 13.6365 14.245C15.9 9.45998 19.3781 5.93998 23.85 3.90498C24.1812 3.73998 24.3469 3.35498 24.1812 3.02498C24.126 2.69498 23.7396 2.52998 23.3531 2.69498Z" fill="black"/>
<path d="M50.626 29.205C50.2948 29.15 49.9083 29.37 49.8531 29.7C49.4667 31.625 48.4177 34.485 45.9885 37.07C44.4979 38.61 42.7312 39.82 40.7437 40.645C40.2469 40.865 39.9156 41.25 39.75 41.745L36.5479 53.68C36.4375 54.065 36.6031 54.45 36.9896 54.56C37.0448 54.56 37.1 54.56 37.1552 54.56C37.4312 54.56 37.7073 54.34 37.8177 54.065L41.0198 42.13C41.075 42.02 41.1302 41.965 41.2406 41.91C43.449 41.03 45.326 39.71 46.9823 38.005C49.6323 35.2 50.7365 32.12 51.1781 29.975C51.2333 29.645 50.9573 29.315 50.626 29.205Z" fill="black"/>
<path fill-rule="evenodd" clip-rule="evenodd" d="M52.5031 8.58C52.2271 10.34 50.8469 12.595 48.5833 14.905C50.9021 17.215 52.2823 19.47 52.5031 21.23C52.6135 22.22 52.3927 23.1 51.7854 23.76C51.0677 24.53 49.8531 24.97 48.2521 24.97C46.9823 24.97 45.4917 24.695 43.8354 24.2C42.5656 27.445 40.6333 29.315 38.5354 29.315C36.4375 29.315 34.5052 27.445 33.2354 24.2C31.5792 24.695 30.0885 24.97 28.8187 24.97C27.2177 24.97 26.0031 24.585 25.2854 23.76C24.6781 23.1 24.4021 22.275 24.5677 21.23C24.7885 19.47 26.224 17.215 28.4875 14.905C26.1687 12.595 24.7885 10.34 24.5677 8.58C24.4573 7.535 24.6781 6.655 25.2854 5.995C26.0031 5.225 27.2177 4.785 28.8187 4.785C30.0885 4.785 31.5792 5.06 33.2354 5.555C34.5052 2.31 36.4375 0.440002 38.5354 0.440002C40.6333 0.440002 42.5656 2.31 43.8354 5.555C45.4917 5.06 46.9823 4.785 48.2521 4.785C49.8531 4.785 51.0677 5.17 51.7854 5.995C52.3927 6.71 52.6687 7.535 52.5031 8.58ZM26.5552 21.175C26.5 21.78 26.6104 22.22 26.8865 22.55C27.6594 23.43 29.9781 23.485 33.0146 22.605C32.5729 21.12 32.2417 19.47 32.076 17.71C31.3031 17.105 30.5854 16.5 29.9229 15.895C27.9354 17.875 26.776 19.745 26.5552 21.175ZM31.9104 15.73C31.5792 15.455 31.2479 15.18 30.9719 14.905C31.1375 14.7675 31.2893 14.63 31.4411 14.4925L31.4412 14.4925C31.593 14.355 31.7448 14.2175 31.9104 14.08V14.905C31.8736 15.0883 31.8859 15.2717 31.8981 15.455L31.8981 15.455C31.9043 15.5467 31.9104 15.6383 31.9104 15.73ZM29.8677 13.915C30.5302 13.31 31.2479 12.705 32.0208 12.1C32.1865 10.34 32.4625 8.69 32.9042 7.205C31.4687 6.765 30.199 6.545 29.15 6.545C28.0458 6.545 27.2177 6.82 26.8312 7.26C26.5552 7.59 26.4448 8.03 26.5 8.635C26.7208 10.01 27.8802 11.935 29.8677 13.915ZM43.449 10.89C43.3109 10.78 43.1729 10.6838 43.0349 10.5875C42.8969 10.4913 42.7589 10.395 42.6208 10.285C41.8479 9.79 41.075 9.295 40.1365 8.8C41.0198 8.36 41.9031 8.03 42.7865 7.7C43.0625 8.69 43.2833 9.735 43.449 10.89ZM42.2344 6.325C41.2406 3.795 39.9156 2.365 38.5354 2.365C37.1552 2.365 35.8302 3.795 34.8365 6.325C36.051 6.765 37.2656 7.26 38.5354 7.92C39.75 7.315 41.0198 6.765 42.2344 6.325ZM34.3396 7.7C35.2229 8.03 36.1062 8.36 36.9896 8.8C36.051 9.295 35.2781 9.79 34.5052 10.285C34.3672 10.395 34.2292 10.4913 34.0911 10.5875C33.9531 10.6838 33.8151 10.78 33.6771 10.89C33.8427 9.735 34.0635 8.69 34.3396 7.7ZM36.9896 21.01C36.051 20.46 35.2781 19.965 34.5052 19.47C34.2292 19.305 33.9531 19.14 33.6771 18.92C33.8427 20.02 34.0635 21.12 34.3396 22.11C35.2229 21.78 36.1062 21.45 36.9896 21.01ZM38.5354 27.445C37.1552 27.445 35.8302 26.015 34.8365 23.485C36.051 23.045 37.3208 22.495 38.5354 21.89C39.8052 22.495 41.0198 23.045 42.2344 23.485C41.2958 26.015 39.9156 27.445 38.5354 27.445ZM40.0812 21.01C41.0198 21.45 41.8479 21.78 42.7312 22.11C43.0625 21.12 43.2833 20.02 43.3937 18.92C43.2557 19.03 43.1177 19.1262 42.9797 19.2225L42.9797 19.2225L42.9796 19.2225C42.8416 19.3188 42.7036 19.415 42.5656 19.525C41.7927 20.02 41.0198 20.515 40.0812 21.01ZM43.6698 16.995C43.0625 17.49 42.4 17.93 41.7927 18.315C40.7437 18.975 39.6948 19.635 38.5906 20.24C37.4865 19.635 36.3823 19.03 35.3885 18.315C35.0849 18.095 34.7675 17.875 34.4501 17.655L34.45 17.655C34.1326 17.435 33.8151 17.215 33.5115 16.995C33.4562 16.28 33.4562 15.565 33.4562 14.905C33.4562 14.245 33.4562 13.585 33.5115 12.815C34.174 12.32 34.7812 11.88 35.3885 11.495C36.3823 10.835 37.4865 10.175 38.5906 9.57C39.6948 10.175 40.7437 10.78 41.7927 11.495C42.0963 11.715 42.4137 11.9349 42.7311 12.1549L42.7313 12.155C43.0487 12.375 43.3661 12.595 43.6698 12.815C43.725 13.53 43.725 14.245 43.725 14.9049V14.905C43.725 15.565 43.725 16.225 43.6698 16.995ZM50.5708 8.635C50.626 8.03 50.5156 7.59 50.2396 7.26C49.4115 6.38 47.1479 6.325 44.1115 7.205C44.5531 8.69 44.8844 10.34 45.05 12.1C45.8229 12.705 46.5406 13.31 47.2031 13.915C49.1906 11.88 50.4052 10.01 50.5708 8.635ZM45.2156 14.025L45.2156 14.025L45.2156 14.025C45.5469 14.3 45.8781 14.575 46.1542 14.85C45.9885 14.9875 45.8367 15.125 45.6849 15.2625C45.5331 15.4 45.3813 15.5375 45.2156 15.675V14.85V14.025ZM44.1667 22.605C47.1479 23.485 49.4115 23.43 50.2396 22.55C50.5156 22.22 50.626 21.78 50.626 21.175C50.4052 19.745 49.2458 17.875 47.2583 15.895C46.5958 16.5 45.8781 17.105 45.1052 17.71C44.9396 19.47 44.6083 21.12 44.1667 22.605Z" fill="black"/>
<ellipse cx="38.5354" cy="14.905" rx="3.03646" ry="3.025" fill="black"/>
</svg>
