<svg width="74" height="52" viewBox="0 0 74 52" fill="none" xmlns="http://www.w3.org/2000/svg">
<circle cx="10" cy="4" r="4" fill="black"/>
<path d="M12.7736 9.9361C10.6753 8.68928 8.27053 8.68807 6.17769 9.93187C1.90811 12.4708 -0.382342 19.4673 0.0523997 28.6469C0.0937457 29.5234 0.842231 30.2 1.72448 30.1595C2.60673 30.1196 3.28834 29.3748 3.24699 28.4983C3.04573 24.2298 3.46588 20.4459 4.46305 17.5566C4.58344 17.2062 4.71295 16.8697 4.85097 16.5478V30.0453H4.86496V50.0615C4.86496 51.1247 5.73322 51.9873 6.80336 51.9873C7.87471 51.9873 8.74236 51.1241 8.74236 50.0615V30.0453H10.1682V50.0742C10.1682 51.1374 11.0365 52 12.1072 52C13.1773 52 14.0456 51.1374 14.0456 50.0742V30.0453H14.0584V16.4118C14.2231 16.7827 14.3764 17.1736 14.5199 17.5825C15.5268 20.4755 15.9524 24.251 15.7536 28.5013C15.7122 29.3772 16.3938 30.1226 17.2761 30.1613C17.3022 30.1625 17.3265 30.1637 17.3521 30.1637C18.2015 30.1637 18.9086 29.4998 18.9488 28.6493C19.3798 19.4866 17.0712 12.4914 12.7736 9.9361Z" fill="black"/>
<path fill-rule="evenodd" clip-rule="evenodd" d="M41.4555 0.782691C55.4859 -2.6999 69.7048 5.76563 73.2119 19.6936C76.7197 33.6198 68.1885 47.7356 54.1582 51.2176C40.1255 54.6996 25.9071 46.2334 22.4006 32.3073C21.0131 26.7986 21.5143 21.2636 23.4919 16.3646L16 6.89688L28.557 8.38342C31.9015 4.776 36.3052 2.06218 41.4555 0.782691ZM53.5591 48.8374C66.2436 45.6879 73.9882 32.8822 70.8154 20.2889C67.645 7.69507 54.7422 0.0133155 42.0553 3.16463C37.5524 4.28209 33.5133 6.66223 30.3755 10.0446C29.8393 10.6249 29.0539 10.9124 28.2662 10.8194L21.6249 10.0338L25.4356 14.8499C25.6532 15.1254 25.8068 15.4392 25.889 15.7693C26.0123 16.262 25.9821 16.7883 25.7868 17.275C23.9241 21.8943 23.5832 26.8856 24.799 31.7137C27.9699 44.3034 40.8715 51.9869 53.5591 48.8374Z" fill="black"/>
<path fill-rule="evenodd" clip-rule="evenodd" d="M36 37V15H58V37H36ZM52.1805 20.8665H57.243V15.757H52.1805V20.8665ZM52.1805 25.9994V20.8665H47.0231V15.757H41.9126V20.8665H47.0231V25.9994H52.1805ZM52.1805 31.1329H57.243V25.9994H52.1805V31.1329ZM47.0231 31.1329V36.2436H52.1805V31.1329H47.0231ZM41.9126 31.1329H47.0231V26.0702H41.9126V20.9139H36.7564V26.0702H41.9126V31.1329ZM41.9126 31.1329H36.7564V36.2436H41.9126V31.1329Z" fill="black"/>
</svg>
